# xmcd
#
# Track frame offsets:
#	150
#	13277
#	37930
#	55614
#	68532
#	86534
#	102699
#	133127
#	152703
#	178008
#	189244
#	206678
#
# Disc length: 2970 seconds
#
# Revision: 1
# Processed by: cddbd v1.5.1PL2 Copyright (c) Steve Scherf et al.
# Submitted via: audiograbber 1.83.01
#
DISCID=9e0b980c
DTITLE=Al Jones - Bittersweet
DYEAR=2005
DGENRE=Blues
TTITLE0=Too Long
TTITLE1=Got To Be Tough
TTITLE2=You Don't Love Me
TTITLE3=Give Me All Your Lovin'
TTITLE4=Bittersweet
TTITLE5=I Need You So Bad
TTITLE6=Nobody Wanna Die
TTITLE7=Fesuloma Luck
TTITLE8=Won't Be Hangin' 'Round
TTITLE9=Checkin' On My Baby
TTITLE10=Demands
TTITLE11=Relax
EXTD=
EXTT0=
EXTT1=
EXTT2=
EXTT3=
EXTT4=
EXTT5=
EXTT6=
EXTT7=
EXTT8=
EXTT9=
EXTT10=
EXTT11=
PLAYORDER=
